<svg width="26" height="22" viewBox="0 0 26 22" fill="none" xmlns="http://www.w3.org/2000/svg">
<path d="M2.90625 6.40625C2.13546 6.40625 1.39625 6.10006 0.851221 5.55503C0.306193 5.01 0 4.27079 0 3.5C0 2.72921 0.306193 1.99 0.851221 1.44497C1.39625 0.899943 2.13546 0.59375 2.90625 0.59375C3.67704 0.59375 4.41625 0.899943 4.96128 1.44497C5.50631 1.99 5.8125 2.72921 5.8125 3.5C5.8125 4.27079 5.50631 5.01 4.96128 5.55503C4.41625 6.10006 3.67704 6.40625 2.90625 6.40625ZM12.5938 6.40625C11.823 6.40625 11.0837 6.10006 10.5387 5.55503C9.99369 5.01 9.6875 4.27079 9.6875 3.5C9.6875 2.72921 9.99369 1.99 10.5387 1.44497C11.0837 0.899943 11.823 0.59375 12.5938 0.59375C13.3645 0.59375 14.1038 0.899943 14.6488 1.44497C15.1938 1.99 15.5 2.72921 15.5 3.5C15.5 4.27079 15.1938 5.01 14.6488 5.55503C14.1038 6.10006 13.3645 6.40625 12.5938 6.40625ZM22.2812 6.40625C21.5105 6.40625 20.7712 6.10006 20.2262 5.55503C19.6812 5.01 19.375 4.27079 19.375 3.5C19.375 2.72921 19.6812 1.99 20.2262 1.44497C20.7712 0.899943 21.5105 0.59375 22.2812 0.59375C23.052 0.59375 23.7913 0.899943 24.3363 1.44497C24.8813 1.99 25.1875 2.72921 25.1875 3.5C25.1875 4.27079 24.8813 5.01 24.3363 5.55503C23.7913 6.10006 23.052 6.40625 22.2812 6.40625Z" fill="black"/>
<path d="M2.90625 13.8125C2.13546 13.8125 1.39625 13.5063 0.851221 12.9613C0.306193 12.4163 0 11.677 0 10.9062C0 10.1355 0.306193 9.39625 0.851221 8.85122C1.39625 8.30619 2.13546 8 2.90625 8C3.67704 8 4.41625 8.30619 4.96128 8.85122C5.50631 9.39625 5.8125 10.1355 5.8125 10.9062C5.8125 11.677 5.50631 12.4163 4.96128 12.9613C4.41625 13.5063 3.67704 13.8125 2.90625 13.8125ZM12.5938 13.8125C11.823 13.8125 11.0837 13.5063 10.5387 12.9613C9.99369 12.4163 9.6875 11.677 9.6875 10.9062C9.6875 10.1355 9.99369 9.39625 10.5387 8.85122C11.0837 8.30619 11.823 8 12.5938 8C13.3645 8 14.1038 8.30619 14.6488 8.85122C15.1938 9.39625 15.5 10.1355 15.5 10.9062C15.5 11.677 15.1938 12.4163 14.6488 12.9613C14.1038 13.5063 13.3645 13.8125 12.5938 13.8125ZM22.2812 13.8125C21.5105 13.8125 20.7712 13.5063 20.2262 12.9613C19.6812 12.4163 19.375 11.677 19.375 10.9062C19.375 10.1355 19.6812 9.39625 20.2262 8.85122C20.7712 8.30619 21.5105 8 22.2812 8C23.052 8 23.7913 8.30619 24.3363 8.85122C24.8813 9.39625 25.1875 10.1355 25.1875 10.9062C25.1875 11.677 24.8813 12.4163 24.3363 12.9613C23.7913 13.5063 23.052 13.8125 22.2812 13.8125Z" fill="black"/>
<path d="M2.90625 21.2188C2.13546 21.2188 1.39625 20.9126 0.851221 20.3675C0.306193 19.8225 0 19.0833 0 18.3125C0 17.5417 0.306193 16.8025 0.851221 16.2575C1.39625 15.7124 2.13546 15.4063 2.90625 15.4062C3.67704 15.4062 4.41625 15.7124 4.96128 16.2575C5.50631 16.8025 5.8125 17.5417 5.8125 18.3125C5.8125 19.0833 5.50631 19.8225 4.96128 20.3675C4.41625 20.9126 3.67704 21.2188 2.90625 21.2188ZM12.5938 21.2188C11.823 21.2188 11.0837 20.9126 10.5387 20.3675C9.99369 19.8225 9.6875 19.0833 9.6875 18.3125C9.6875 17.5417 9.99369 16.8025 10.5387 16.2575C11.0837 15.7124 11.823 15.4063 12.5938 15.4062C13.3645 15.4062 14.1038 15.7124 14.6488 16.2575C15.1938 16.8025 15.5 17.5417 15.5 18.3125C15.5 19.0833 15.1938 19.8225 14.6488 20.3675C14.1038 20.9126 13.3645 21.2188 12.5938 21.2188ZM22.2812 21.2188C21.5105 21.2188 20.7712 20.9126 20.2262 20.3675C19.6812 19.8225 19.375 19.0833 19.375 18.3125C19.375 17.5417 19.6812 16.8025 20.2262 16.2575C20.7712 15.7124 21.5105 15.4063 22.2812 15.4062C23.052 15.4062 23.7913 15.7124 24.3363 16.2575C24.8813 16.8025 25.1875 17.5417 25.1875 18.3125C25.1875 19.0833 24.8813 19.8225 24.3363 20.3675C23.7913 20.9126 23.052 21.2188 22.2812 21.2188Z" fill="black"/>
</svg>
