<svg width="351" height="129" viewBox="0 0 351 129" fill="none" xmlns="http://www.w3.org/2000/svg">
<path d="M49.512 86.32V32.56L42.504 30.64V24.88H67.944V30.64L59.016 32.56V94H42.504L18.6 32.56V86.32L25.608 88.24V94H0.168V88.24L9.096 86.32V32.56L0.168 30.64V24.88H25.608L49.512 86.32ZM92.7188 94.96C88.9428 94.96 85.7748 94.352 83.2148 93.136C80.6548 91.92 78.6068 90.224 77.0708 88.048C75.5348 85.808 74.4148 83.184 73.7108 80.176C73.0708 77.104 72.7508 73.712 72.7508 70C72.7508 66.288 73.0708 62.928 73.7108 59.92C74.4148 56.848 75.5348 54.224 77.0708 52.048C78.6068 49.808 80.6548 48.08 83.2148 46.864C85.7748 45.648 88.9428 45.04 92.7188 45.04C96.4948 45.04 99.6628 45.648 102.223 46.864C104.783 48.08 106.831 49.808 108.367 52.048C109.903 54.224 110.991 56.848 111.631 59.92C112.335 62.928 112.687 66.288 112.687 70C112.687 73.712 112.335 77.104 111.631 80.176C110.991 83.184 109.903 85.808 108.367 88.048C106.831 90.224 104.783 91.92 102.223 93.136C99.6628 94.352 96.4948 94.96 92.7188 94.96ZM92.7188 89.2C94.8948 89.2 96.6228 88.656 97.9028 87.568C99.2468 86.48 100.239 85.04 100.879 83.248C101.583 81.392 102.031 79.344 102.223 77.104C102.415 74.8 102.511 72.432 102.511 70C102.511 67.632 102.415 65.296 102.223 62.992C102.031 60.688 101.583 58.64 100.879 56.848C100.239 54.992 99.2468 53.52 97.9028 52.432C96.6228 51.344 94.8948 50.8 92.7188 50.8C90.4788 50.8 88.7188 51.344 87.4388 52.432C86.1588 53.52 85.1668 54.992 84.4628 56.848C83.8228 58.64 83.4068 60.688 83.2148 62.992C83.0228 65.296 82.9268 67.632 82.9268 70C82.9268 72.432 83.0228 74.8 83.2148 77.104C83.4068 79.344 83.8228 81.392 84.4628 83.248C85.1668 85.04 86.1588 86.48 87.4388 87.568C88.7188 88.656 90.4788 89.2 92.7188 89.2ZM117.683 47.92L124.883 46L126.803 33.424H134.003V46H143.027V53.008H134.003V79.12C134.003 82.064 134.355 84.208 135.059 85.552C135.763 86.896 136.915 87.568 138.515 87.568C139.219 87.568 140.115 87.472 141.203 87.28C142.291 87.088 143.315 86.832 144.275 86.512L146.291 91.888C145.331 92.784 143.923 93.52 142.067 94.096C140.275 94.672 138.387 94.96 136.403 94.96C132.371 94.96 129.427 93.712 127.571 91.216C125.779 88.656 124.883 84.624 124.883 79.12V53.008H117.683V47.92ZM170.717 94.96C166.877 94.96 163.677 94.384 161.117 93.232C158.557 92.08 156.509 90.416 154.973 88.24C153.437 86.064 152.349 83.44 151.709 80.368C151.069 77.296 150.749 73.84 150.749 70C150.749 66.16 151.069 62.704 151.709 59.632C152.349 56.496 153.437 53.872 154.973 51.76C156.573 49.584 158.653 47.92 161.213 46.768C163.837 45.616 167.069 45.04 170.909 45.04C174.173 45.04 176.893 45.488 179.069 46.384C181.245 47.28 183.005 48.656 184.349 50.512C185.693 52.304 186.653 54.608 187.229 57.424C187.805 60.176 188.093 63.44 188.093 67.216C188.093 67.984 188.093 68.784 188.093 69.616C188.093 70.384 188.061 71.216 187.997 72.112H160.924C160.924 74.48 161.021 76.72 161.213 78.832C161.405 80.88 161.821 82.672 162.461 84.208C163.165 85.744 164.157 86.96 165.437 87.856C166.717 88.752 168.477 89.2 170.717 89.2C172.573 89.2 174.045 88.912 175.133 88.336C176.285 87.696 177.149 86.928 177.725 86.032C178.301 85.072 178.685 84.048 178.877 82.96C179.069 81.872 179.197 80.816 179.261 79.792H187.997C187.805 81.648 187.389 83.504 186.749 85.36C186.173 87.152 185.213 88.784 183.869 90.256C182.589 91.664 180.893 92.816 178.781 93.712C176.669 94.544 173.981 94.96 170.717 94.96ZM170.333 50.8C168.349 50.8 166.749 51.216 165.533 52.048C164.317 52.88 163.357 54 162.653 55.408C162.013 56.816 161.565 58.48 161.309 60.4C161.117 62.256 160.989 64.24 160.924 66.352H179.165C179.165 60.592 178.461 56.56 177.053 54.256C175.709 51.952 173.469 50.8 170.333 50.8ZM203.326 88.048L201.406 94H196.03V79.12H204.286C204.286 82.512 205.118 84.976 206.782 86.512C208.51 87.984 210.526 88.72 212.83 88.72C214.558 88.72 216.19 88.272 217.726 87.376C219.262 86.416 220.03 84.912 220.03 82.864C220.03 81.2 219.454 79.888 218.302 78.928C217.15 77.904 215.71 77.008 213.982 76.24C212.318 75.472 210.494 74.704 208.51 73.936C206.526 73.168 204.67 72.176 202.942 70.96C201.278 69.744 199.87 68.208 198.718 66.352C197.566 64.432 196.99 61.968 196.99 58.96C196.99 56.464 197.374 54.352 198.142 52.624C198.974 50.832 200.03 49.392 201.31 48.304C202.59 47.152 203.998 46.32 205.534 45.808C207.134 45.296 208.702 45.04 210.238 45.04C211.326 45.04 212.382 45.168 213.406 45.424C214.43 45.68 215.358 46.096 216.19 46.672C217.086 47.248 217.822 47.984 218.398 48.88C218.974 49.776 219.358 50.832 219.55 52.048H219.934L221.854 46H227.23V60.976H219.07C219.006 57.968 218.27 55.6 216.862 53.872C215.454 52.144 213.534 51.28 211.102 51.28C209.374 51.28 207.966 51.792 206.878 52.816C205.854 53.84 205.342 55.216 205.342 56.944C205.342 58.736 205.918 60.144 207.07 61.168C208.222 62.192 209.63 63.12 211.294 63.952C213.022 64.72 214.878 65.488 216.862 66.256C218.91 67.024 220.766 68.016 222.43 69.232C224.158 70.384 225.598 71.888 226.75 73.744C227.902 75.536 228.478 77.904 228.478 80.848C228.478 83.28 228.062 85.392 227.23 87.184C226.398 88.976 225.31 90.448 223.966 91.6C222.686 92.752 221.182 93.584 219.454 94.096C217.79 94.672 216.094 94.96 214.366 94.96C213.214 94.96 212.03 94.832 210.814 94.576C209.662 94.32 208.606 93.904 207.646 93.328C206.686 92.752 205.854 92.048 205.15 91.216C204.446 90.32 203.966 89.264 203.71 88.048H203.326Z" fill="#A27662"/>
<g clip-path="url(#clip0_16_2)">
<path fill-rule="evenodd" clip-rule="evenodd" d="M276.027 58.3282L296.59 22.7129L301.678 25.6504L283.709 56.7731L295.653 56.5661C296.185 56.5575 296.709 56.6934 297.169 56.9593C297.63 57.2252 298.01 57.6111 298.268 58.076L304.061 68.5231L322.029 37.4004L327.117 40.3379L306.555 75.9532C306.295 76.4033 305.92 76.7765 305.469 77.0346C305.018 77.2927 304.507 77.4265 303.987 77.4224C303.467 77.4182 302.958 77.2762 302.511 77.0109C302.064 76.7456 301.696 76.3665 301.443 75.9122L293.985 62.4751L278.616 62.7397C278.096 62.7481 277.583 62.6183 277.129 62.3634C276.675 62.1086 276.298 61.7378 276.035 61.2891C275.771 60.8404 275.632 60.3299 275.631 59.8096C275.629 59.2894 275.766 58.7781 276.027 58.3282Z" fill="#652E15"/>
<path d="M284.264 8.8125L335.143 38.1875C337.841 39.7456 339.811 42.3121 340.617 45.3222C341.424 48.3323 341.002 51.5395 339.443 54.2383L304.193 115.293C302.635 117.992 300.069 119.961 297.059 120.768C294.049 121.574 290.841 121.152 288.143 119.594L237.264 90.2189C234.565 88.6607 232.596 86.0943 231.789 83.0842C230.983 80.0741 231.405 76.8669 232.963 74.1681L235.9 69.0802L240.988 72.0177L238.051 77.1056C237.272 78.455 237.061 80.0586 237.464 81.5636C237.867 83.0687 238.852 84.3519 240.201 85.131L291.08 114.506C292.43 115.285 294.033 115.496 295.538 115.093C297.043 114.69 298.327 113.705 299.106 112.356L334.356 51.3008C335.135 49.9514 335.346 48.3478 334.943 46.8427C334.539 45.3377 333.555 44.0545 332.205 43.2754L281.326 13.9004C279.977 13.1213 278.373 12.9102 276.868 13.3135C275.363 13.7168 274.08 14.7014 273.301 16.0508L270.363 21.1387L265.275 18.2012L268.213 13.1133C269.771 10.4145 272.337 8.44523 275.348 7.63867C278.358 6.83211 281.565 7.25435 284.264 8.8125Z" fill="#652E15"/>
<path d="M259.4 28.377L260.869 25.8331C261.259 25.1584 261.9 24.6661 262.653 24.4644C263.405 24.2628 264.207 24.3683 264.882 24.7579C265.557 25.1474 266.049 25.789 266.251 26.5415C266.452 27.2941 266.347 28.0959 265.957 28.7706L264.488 31.3145L267.032 32.7833C267.707 33.1728 268.199 33.8144 268.401 34.5669C268.603 35.3195 268.497 36.1213 268.107 36.796C267.718 37.4707 267.076 37.963 266.324 38.1646C265.571 38.3663 264.769 38.2607 264.095 37.8712L253.919 31.9962C253.244 31.6066 252.752 30.965 252.55 30.2125C252.349 29.46 252.454 28.6582 252.844 27.9835C253.233 27.3088 253.875 26.8165 254.627 26.6148C255.38 26.4132 256.182 26.5187 256.856 26.9083L259.4 28.377ZM250.588 43.6407L252.057 41.0968C252.446 40.4221 253.088 39.9298 253.84 39.7281C254.593 39.5265 255.395 39.632 256.069 40.0216C256.744 40.4111 257.236 41.0527 257.438 41.8052C257.64 42.5578 257.534 43.3596 257.145 44.0343L255.676 46.5782L258.22 48.047C258.894 48.4365 259.387 49.0781 259.588 49.8306C259.79 50.5832 259.684 51.385 259.295 52.0597C258.905 52.7344 258.264 53.2267 257.511 53.4283C256.759 53.63 255.957 53.5244 255.282 53.1349L245.106 47.2599C244.432 46.8703 243.939 46.2287 243.738 45.4762C243.536 44.7237 243.642 43.9219 244.031 43.2472C244.421 42.5725 245.062 42.0801 245.815 41.8785C246.567 41.6769 247.369 41.7824 248.044 42.172L250.588 43.6407ZM241.775 58.9044L243.244 56.3605C243.634 55.6858 244.275 55.1934 245.028 54.9918C245.78 54.7902 246.582 54.8957 247.257 55.2853C247.932 55.6748 248.424 56.3164 248.626 57.0689C248.827 57.8215 248.722 58.6233 248.332 59.298L246.863 61.8419L249.407 63.3107C250.082 63.7002 250.574 64.3418 250.776 65.0943C250.978 65.8469 250.872 66.6487 250.482 67.3234C250.093 67.9981 249.451 68.4904 248.699 68.692C247.946 68.8937 247.144 68.7881 246.47 68.3986L236.294 62.5236C235.619 62.134 235.127 61.4924 234.925 60.7399C234.724 59.9874 234.829 59.1856 235.219 58.5109C235.608 57.8362 236.25 57.3438 237.002 57.1422C237.755 56.9406 238.557 57.0461 239.231 57.4357L241.775 58.9044Z" fill="#652E15"/>
</g>
<defs>
<clipPath id="clip0_16_2">
<rect width="94" height="94" fill="white" transform="translate(269) rotate(30)"/>
</clipPath>
</defs>
</svg>
